<svg version="1.1" id="Layer_1" xmlns="http://www.w3.org/2000/svg" xmlns:xlink="http://www.w3.org/1999/xlink" x="0px" y="0px"
	 width="100%" viewBox="0 0 500 500" xml:space="preserve">
<path  fill="none" stroke="none" 
	d="
M285.000000,501.000000 
	C190.000015,501.000000 95.500046,501.000000 1.000051,501.000000 
	C1.000034,334.333405 1.000034,167.666794 1.000017,1.000140 
	C167.666565,1.000093 334.333130,1.000093 500.999756,1.000047 
	C500.999847,167.666519 500.999847,334.333038 500.999939,500.999786 
	C429.166656,501.000000 357.333344,501.000000 285.000000,501.000000 
M311.978577,122.021263 
	C311.978577,122.021263 312.013245,122.020500 311.904083,121.483185 
	C311.595673,121.317780 311.287262,121.152382 310.978668,121.020958 
	C310.978668,121.020958 311.012665,121.020691 310.919189,120.490822 
	C310.500488,120.155617 310.081818,119.820412 309.642731,119.356140 
	C309.642731,119.356140 309.513611,119.335976 309.247528,118.860794 
	C308.828918,118.566620 308.410339,118.272453 307.986694,118.013649 
	C307.986694,118.013649 308.022125,118.009308 307.918732,117.469383 
	C307.608765,117.306808 307.298767,117.144234 306.986115,117.014145 
	C306.986115,117.014145 307.018555,117.010925 306.915863,116.472992 
	C306.608337,116.306755 306.300812,116.140518 305.987061,116.011780 
	C305.987061,116.011780 306.024506,116.005371 305.870575,115.388344 
	C304.913818,114.601608 303.957031,113.814873 303.005615,112.989471 
	C303.005615,112.989471 302.969025,113.003136 302.876160,112.493073 
	C302.581787,112.349281 302.287415,112.205482 302.000793,112.000610 
	C302.000793,112.000610 301.940247,112.011749 301.749359,111.398140 
	C301.342010,111.332016 300.934631,111.265900 300.079651,110.742043 
	C293.499573,103.760757 286.992523,96.708267 280.296234,89.840286 
	C278.205383,87.695824 275.603546,86.049629 272.462891,84.135017 
	C269.209198,85.451050 265.976227,86.821388 262.697662,88.072212 
	C255.028076,90.998260 254.010498,92.506248 254.051285,101.667885 
	C254.094681,102.105553 254.138077,102.543213 254.030121,103.909782 
	C253.684784,119.654602 253.247192,135.398071 253.014542,151.144547 
	C252.609726,178.541336 252.377487,205.940689 251.965149,233.337357 
	C251.870941,239.598129 251.104370,245.850403 251.053070,252.109909 
	C250.918427,268.538025 251.007614,284.967987 251.007614,301.749207 
	C259.041229,298.479065 266.682404,295.309479 274.374084,292.267822 
	C277.307068,291.108002 278.072784,289.097076 278.055237,286.081787 
	C277.945221,267.191925 277.999634,248.301102 277.999634,230.019608 
	C302.240540,220.258011 325.126495,211.042038 348.712646,201.977905 
	C356.509155,210.182190 364.270721,218.420013 372.109344,226.583862 
	C389.187347,244.370468 406.304565,262.119415 425.135284,281.680359 
	C427.937927,277.971313 430.624573,274.415802 433.802979,270.583038 
	C434.823608,269.490326 435.844238,268.397614 437.451050,266.990356 
	C437.911407,266.301392 438.371735,265.612396 439.150024,264.331726 
	C440.850067,262.828125 442.550079,261.324524 444.384277,259.702271 
	C435.906067,250.833496 427.869415,242.426666 420.189789,233.371323 
	C421.779236,232.686951 423.368652,232.002563 425.577179,231.051605 
	C422.930817,228.779327 420.523163,226.893112 418.322083,224.790619 
	C409.087860,215.969925 399.904663,207.095703 390.723206,198.219925 
	C379.985962,187.840149 369.249359,177.459518 358.549835,167.040909 
	C344.032867,152.905106 329.552399,138.731827 315.047974,124.583153 
	C314.697845,124.241615 314.249481,124.000755 313.774841,123.412971 
	C313.653595,123.220535 313.479279,123.126862 312.988953,122.578178 
	C312.652222,122.380981 312.315491,122.183792 311.978577,122.021263 
M58.733677,88.083305 
	C51.297203,88.083305 43.860725,88.083305 36.347115,88.083305 
	C36.347115,159.413101 36.347115,230.117966 36.347115,300.690704 
	C43.407516,301.084229 50.110111,301.457825 56.881245,301.835205 
	C56.953663,300.400177 57.011997,299.244141 57.972408,298.014374 
	C60.564182,298.014374 63.155952,298.014374 66.121216,298.014374 
	C66.121216,244.769516 66.121216,192.225006 66.121216,138.664902 
	C68.562187,141.494873 70.323151,143.560959 72.110313,145.604141 
	C79.263100,153.781616 86.487686,161.897293 93.566177,170.138519 
	C102.872749,180.973831 112.001083,191.962463 121.329781,202.778473 
	C128.860504,211.509827 136.637894,220.028137 144.192841,228.738968 
	C156.579727,243.020950 168.904739,257.356903 181.194046,271.722992 
	C186.095886,277.453186 190.760071,283.386993 195.675171,289.105438 
	C198.324158,292.187347 200.993210,297.126007 204.143097,297.545135 
	C212.902557,298.710602 221.918320,297.949707 230.741913,297.949707 
	C230.741913,227.630539 230.741913,158.040634 230.741913,88.316391 
	C220.764160,88.316391 211.046219,88.316391 200.934052,88.316391 
	C200.934052,141.518707 200.934052,194.406570 200.934052,248.542984 
	C195.940582,243.128189 191.613037,238.693451 187.577408,234.007324 
	C178.257935,223.185699 169.139679,212.190826 159.825638,201.364471 
	C152.527069,192.880859 145.006317,184.588730 137.675735,176.132248 
	C127.455917,164.342804 117.341545,152.462021 107.143333,140.653763 
	C100.262894,132.687088 93.272171,124.815468 86.410011,116.833221 
	C78.922073,108.123024 71.580299,99.286438 64.025688,90.635170 
	C62.983368,89.441536 61.083969,88.996353 58.733677,88.083305 
z"/>
<path fill="#F44336" opacity="1.000000" stroke="none" 
	d="
M59.581360,88.204674 
	C61.083969,88.996353 62.983368,89.441536 64.025688,90.635170 
	C71.580299,99.286438 78.922073,108.123024 86.410011,116.833221 
	C93.272171,124.815468 100.262894,132.687088 107.143333,140.653763 
	C117.341545,152.462021 127.455917,164.342804 137.675735,176.132248 
	C145.006317,184.588730 152.527069,192.880859 159.825638,201.364471 
	C169.139679,212.190826 178.257935,223.185699 187.577408,234.007324 
	C191.613037,238.693451 195.940582,243.128189 200.934052,248.542984 
	C200.934052,194.406570 200.934052,141.518707 200.934052,88.316391 
	C211.046219,88.316391 220.764160,88.316391 230.741913,88.316391 
	C230.741913,158.040634 230.741913,227.630539 230.741913,297.949707 
	C221.918320,297.949707 212.902557,298.710602 204.143097,297.545135 
	C200.993210,297.126007 198.324158,292.187347 195.675171,289.105438 
	C190.760071,283.386993 186.095886,277.453186 181.194046,271.722992 
	C168.904739,257.356903 156.579727,243.020950 144.192841,228.738968 
	C136.637894,220.028137 128.860504,211.509827 121.329781,202.778473 
	C112.001083,191.962463 102.872749,180.973831 93.566177,170.138519 
	C86.487686,161.897293 79.263100,153.781616 72.110313,145.604141 
	C70.323151,143.560959 68.562187,141.494873 66.121216,138.664902 
	C66.121216,192.225006 66.121216,244.769516 66.121216,298.014374 
	C63.155952,298.014374 60.564182,298.014374 57.437210,297.583557 
	C57.189163,276.374542 57.464844,255.596161 57.766537,234.818176 
	C58.099644,211.876465 58.517563,188.935806 58.782906,165.993362 
	C58.977192,149.194443 58.944942,132.393036 59.091362,115.593422 
	C59.170940,106.463104 59.412731,97.334213 59.581360,88.204674 
z"/>
<path fill="#F44336" opacity="1.000000" stroke="none" 
	d="
M348.012451,201.826050 
	C325.126495,211.042038 302.240540,220.258011 277.999634,230.019608 
	C277.999634,248.301102 277.945221,267.191925 278.055237,286.081787 
	C278.072784,289.097076 277.307068,291.108002 274.374084,292.267822 
	C266.682404,295.309479 259.041229,298.479065 251.007614,301.749207 
	C251.007614,284.967987 250.918427,268.538025 251.053070,252.109909 
	C251.104370,245.850403 251.870941,239.598129 251.965149,233.337357 
	C252.377487,205.940689 252.609726,178.541336 253.014542,151.144547 
	C253.247192,135.398071 253.684784,119.654602 254.428345,103.527298 
	C261.138123,109.205452 267.582428,115.136269 273.696564,121.389946 
	C276.181396,123.931526 277.948090,127.175255 280.023987,130.561798 
	C280.006439,154.457001 280.006439,177.889923 280.006439,201.235184 
	C286.673492,198.614746 293.939880,195.876144 301.112396,192.910507 
	C310.499329,189.029251 319.812103,184.968582 329.444336,181.147781 
	C335.569824,187.197968 341.438538,193.055679 347.199463,199.017563 
	C347.798126,199.637100 347.756836,200.875046 348.012451,201.826050 
z"/>
<path fill="#FF7F7F" opacity="1.000000" stroke="none" 
	d="
M313.251862,123.131943 
	C313.479279,123.126862 313.653595,123.220535 313.777588,123.956207 
	C314.759766,126.002388 315.527527,127.709663 316.751038,128.976913 
	C330.049744,142.751099 343.443451,156.433472 356.764740,170.185944 
	C374.601868,188.600418 392.365540,207.086212 410.243652,225.460754 
	C413.224060,228.523911 416.625763,231.177170 419.832794,234.019836 
	C427.869415,242.426666 435.906067,250.833496 444.384277,259.702271 
	C442.550079,261.324524 440.850067,262.828125 438.661926,264.720428 
	C437.737488,265.841034 437.301147,266.572968 436.864838,267.304871 
	C435.844238,268.397614 434.823608,269.490326 433.145020,270.698975 
	C429.120514,272.678894 426.667938,271.553650 424.307343,268.770569 
	C421.084595,264.970978 417.589691,261.396027 414.121948,257.811371 
	C393.534210,236.529266 372.949463,215.244125 352.308746,194.013428 
	C322.852448,163.715134 293.339081,133.472305 263.894257,103.162865 
	C262.439209,101.665077 261.405304,99.758186 260.447815,97.869530 
	C264.892090,93.189964 269.063843,88.682655 273.235596,84.175354 
	C275.603546,86.049629 278.205383,87.695824 280.296234,89.840286 
	C286.992523,96.708267 293.499573,103.760757 300.468536,111.219971 
	C301.218353,111.802513 301.579315,111.907135 301.940247,112.011749 
	C301.940247,112.011749 302.000793,112.000610 302.013367,112.305145 
	C302.340302,112.740837 302.654663,112.871986 302.969025,113.003143 
	C302.969025,113.003136 303.005615,112.989471 303.005249,113.352585 
	C304.011414,114.478928 305.017975,115.242142 306.024506,116.005371 
	C306.024506,116.005371 305.987061,116.011780 306.036133,116.265976 
	C306.396332,116.683746 306.707428,116.847336 307.018555,117.010925 
	C307.018555,117.010925 306.986115,117.014145 307.036804,117.269653 
	C307.399048,117.686546 307.710571,117.847931 308.022125,118.009308 
	C308.022125,118.009308 307.986694,118.013649 307.998352,118.310501 
	C308.511200,118.850227 309.012421,119.093102 309.513611,119.335983 
	C309.513611,119.335976 309.642731,119.356140 309.603027,119.732986 
	C310.046417,120.413445 310.529541,120.717064 311.012665,121.020691 
	C311.012665,121.020691 310.978668,121.020958 311.035370,121.271484 
	C311.399139,121.688171 311.706177,121.854340 312.013245,122.020508 
	C312.013245,122.020500 311.978577,122.021263 312.081360,122.296631 
	C312.540070,122.758652 312.895966,122.945297 313.251862,123.131943 
z"/>
<path fill="#FE7A79" opacity="1.000000" stroke="none" 
	d="
M59.157516,88.143990 
	C59.412731,97.334213 59.170940,106.463104 59.091362,115.593422 
	C58.944942,132.393036 58.977192,149.194443 58.782906,165.993362 
	C58.517563,188.935806 58.099644,211.876465 57.766537,234.818176 
	C57.464844,255.596161 57.189163,276.374542 56.986172,297.620422 
	C57.011997,299.244141 56.953663,300.400177 56.881245,301.835205 
	C50.110111,301.457825 43.407516,301.084229 36.347115,300.690704 
	C36.347115,230.117966 36.347115,159.413101 36.347115,88.083305 
	C43.860725,88.083305 51.297203,88.083305 59.157516,88.143990 
z"/>
<path fill="#FF4141" opacity="1.000000" stroke="none" 
	d="
M260.175323,98.041786 
	C261.405304,99.758186 262.439209,101.665077 263.894257,103.162865 
	C293.339081,133.472305 322.852448,163.715134 352.308746,194.013428 
	C372.949463,215.244125 393.534210,236.529266 414.121948,257.811371 
	C417.589691,261.396027 421.084595,264.970978 424.307343,268.770569 
	C426.667938,271.553650 429.120514,272.678894 432.899170,270.837616 
	C430.624573,274.415802 427.937927,277.971313 425.135284,281.680359 
	C406.304565,262.119415 389.187347,244.370468 372.109344,226.583862 
	C364.270721,218.420013 356.509155,210.182190 348.362549,201.901978 
	C347.756836,200.875046 347.798126,199.637100 347.199463,199.017563 
	C341.438538,193.055679 335.569824,187.197968 329.297913,180.840912 
	C319.472748,170.644012 310.100067,160.898727 300.684265,151.195328 
	C293.832886,144.134720 286.924530,137.129440 280.041565,130.099503 
	C277.948090,127.175255 276.181396,123.931526 273.696564,121.389946 
	C267.582428,115.136269 261.138123,109.205452 254.504028,103.062843 
	C254.138077,102.543213 254.094681,102.105553 254.439819,101.260284 
	C256.610687,99.915710 258.393005,98.978745 260.175323,98.041786 
z"/>
<path fill="#F54538" opacity="1.000000" stroke="none" 
	d="
M420.011292,233.695587 
	C416.625763,231.177170 413.224060,228.523911 410.243652,225.460754 
	C392.365540,207.086212 374.601868,188.600418 356.764740,170.185944 
	C343.443451,156.433472 330.049744,142.751099 316.751038,128.976913 
	C315.527527,127.709663 314.759766,126.002388 313.813660,124.106186 
	C314.249481,124.000755 314.697845,124.241615 315.047974,124.583153 
	C329.552399,138.731827 344.032867,152.905106 358.549835,167.040909 
	C369.249359,177.459518 379.985962,187.840149 390.723206,198.219925 
	C399.904663,207.095703 409.087860,215.969925 418.322083,224.790619 
	C420.523163,226.893112 422.930817,228.779327 425.577179,231.051605 
	C423.368652,232.002563 421.779236,232.686951 420.011292,233.695587 
z"/>
<path fill="#F44336" opacity="1.000000" stroke="none" 
	d="
M260.447815,97.869522 
	C258.393005,98.978745 256.610687,99.915710 254.504578,100.935120 
	C254.010498,92.506248 255.028076,90.998260 262.697662,88.072212 
	C265.976227,86.821388 269.209198,85.451050 272.849243,84.155182 
	C269.063843,88.682655 264.892090,93.189964 260.447815,97.869522 
z"/>
<path fill="#F54538" opacity="1.000000" stroke="none" 
	d="
M305.947540,115.696854 
	C305.017975,115.242142 304.011414,114.478928 303.002563,113.371918 
	C303.957031,113.814873 304.913818,114.601608 305.947540,115.696854 
z"/>
<path fill="#FF4141" opacity="1.000000" stroke="none" 
	d="
M437.157959,267.147614 
	C437.301147,266.572968 437.737488,265.841034 438.502930,265.016266 
	C438.371735,265.612396 437.911407,266.301392 437.157959,267.147614 
z"/>
<path fill="#F54538" opacity="1.000000" stroke="none" 
	d="
M309.380554,119.098389 
	C309.012421,119.093102 308.511200,118.850227 308.000854,118.292816 
	C308.410339,118.272453 308.828918,118.566620 309.380554,119.098389 
z"/>
<path fill="#F54538" opacity="1.000000" stroke="none" 
	d="
M310.965942,120.755753 
	C310.529541,120.717064 310.046417,120.413445 309.613220,119.797516 
	C310.081818,119.820412 310.500488,120.155617 310.965942,120.755753 
z"/>
<path fill="#F54538" opacity="1.000000" stroke="none" 
	d="
M302.922607,112.748108 
	C302.654663,112.871986 302.340302,112.740837 302.009491,112.335693 
	C302.287415,112.205482 302.581787,112.349281 302.922607,112.748108 
z"/>
<path fill="#F54538" opacity="1.000000" stroke="none" 
	d="
M306.967224,116.741959 
	C306.707428,116.847336 306.396332,116.683746 306.039246,116.247223 
	C306.300812,116.140518 306.608337,116.306755 306.967224,116.741959 
z"/>
<path fill="#F54538" opacity="1.000000" stroke="none" 
	d="
M307.970428,117.739349 
	C307.710571,117.847931 307.399048,117.686546 307.038147,117.253418 
	C307.298767,117.144234 307.608765,117.306808 307.970428,117.739349 
z"/>
<path fill="#F54538" opacity="1.000000" stroke="none" 
	d="
M311.958679,121.751846 
	C311.706177,121.854340 311.399139,121.688171 311.035461,121.254486 
	C311.287262,121.152382 311.595673,121.317780 311.958679,121.751846 
z"/>
<path fill="#F54538" opacity="1.000000" stroke="none" 
	d="
M313.120422,122.855057 
	C312.895966,122.945297 312.540070,122.758652 312.081482,122.279305 
	C312.315491,122.183792 312.652222,122.380981 313.120422,122.855057 
z"/>
<path fill="#F54538" opacity="1.000000" stroke="none" 
	d="
M301.844788,111.704941 
	C301.579315,111.907135 301.218353,111.802513 300.692352,111.448837 
	C300.934631,111.265900 301.342010,111.332016 301.844788,111.704941 
z"/>

</svg>